<?xml version="1.0" encoding="UTF-8" standalone="no"?><svg xmlns="http://www.w3.org/2000/svg" xmlns:xlink="http://www.w3.org/1999/xlink" contentStyleType="text/css" height="412px" preserveAspectRatio="none" style="width:555px;height:412px;background:#FFFFFF;" version="1.1" viewBox="0 0 555 412" width="555px" zoomAndPan="magnify"><defs/><g><!--MD5=[c0bd9f44073f1a51428d87d6a9cf071b]
class Observable--><g id="elem_Observable"><rect codeLine="3" fill="#F1F1F1" height="32" id="Observable" rx="2.5" ry="2.5" style="stroke:#181818;stroke-width:0.5;" width="105" x="7" y="46"/><ellipse cx="22" cy="62" fill="#ADD1B2" rx="11" ry="11" style="stroke:#181818;stroke-width:1.0;"/><path d="M24.7656,57.875 Q24.9219,57.6563 25.1094,57.5469 Q25.2969,57.4375 25.5156,57.4375 Q25.8906,57.4375 26.125,57.7031 Q26.3594,57.9531 26.3594,58.5625 L26.3594,60.0156 Q26.3594,60.625 26.125,60.8906 Q25.8906,61.1563 25.5156,61.1563 Q25.1719,61.1563 24.9688,60.9531 Q24.7656,60.7656 24.6563,60.25 Q24.6094,59.8906 24.4219,59.7031 Q24.0938,59.3281 23.4844,59.1094 Q22.875,58.8906 22.25,58.8906 Q21.4844,58.8906 20.8438,59.2188 Q20.2188,59.5469 19.7188,60.2969 Q19.2344,61.0469 19.2344,62.0781 L19.2344,63.1719 Q19.2344,64.4063 20.125,65.2344 Q21.0156,66.0469 22.6094,66.0469 Q23.5469,66.0469 24.2031,65.7969 Q24.5938,65.6406 25.0156,65.2031 Q25.2813,64.9375 25.4219,64.8594 Q25.5781,64.7813 25.7813,64.7813 Q26.1094,64.7813 26.3594,65.0469 Q26.625,65.2969 26.625,65.6406 Q26.625,65.9844 26.2813,66.3906 Q25.7813,66.9688 24.9844,67.2969 Q23.9063,67.75 22.6094,67.75 Q21.0938,67.75 19.8906,67.125 Q18.9063,66.625 18.2188,65.5625 Q17.5313,64.4844 17.5313,63.2031 L17.5313,62.0469 Q17.5313,60.7188 18.1406,59.5781 Q18.7656,58.4219 19.8594,57.8125 Q20.9531,57.1875 22.1875,57.1875 Q22.9219,57.1875 23.5625,57.3594 Q24.2188,57.5156 24.7656,57.875 Z " fill="#000000"/><text fill="#000000" font-family="sans-serif" font-size="14" lengthAdjust="spacing" textLength="73" x="36" y="67.7285">Observable</text></g><!--MD5=[d40932010816485ec57b44b6eea2392a]
class Observer--><g id="elem_Observer"><rect codeLine="5" fill="#F1F1F1" height="32" id="Observer" rx="2.5" ry="2.5" style="stroke:#181818;stroke-width:0.5;" width="90" x="297.5" y="46"/><ellipse cx="312.5" cy="62" fill="#B4A7E5" rx="11" ry="11" style="stroke:#181818;stroke-width:1.0;"/><path d="M313.4531,58.6406 L313.4531,65.2969 L315.1719,65.2969 Q315.7813,65.2969 316.0469,65.5313 Q316.3125,65.7656 316.3125,66.1563 Q316.3125,66.5313 316.0469,66.7656 Q315.7813,67 315.1719,67 L310.0313,67 Q309.4219,67 309.1563,66.7656 Q308.8906,66.5313 308.8906,66.1406 Q308.8906,65.7656 309.1563,65.5313 Q309.4219,65.2969 310.0313,65.2969 L311.75,65.2969 L311.75,58.6406 L310.0313,58.6406 Q309.4219,58.6406 309.1563,58.4063 Q308.8906,58.1719 308.8906,57.7813 Q308.8906,57.4063 309.1563,57.1719 Q309.4219,56.9375 310.0313,56.9375 L315.1719,56.9375 Q315.7813,56.9375 316.0469,57.1719 Q316.3125,57.4063 316.3125,57.7813 Q316.3125,58.1719 316.0469,58.4063 Q315.7813,58.6406 315.1719,58.6406 L313.4531,58.6406 Z " fill="#000000"/><text fill="#000000" font-family="sans-serif" font-size="14" font-style="italic" lengthAdjust="spacing" textLength="58" x="326.5" y="67.7285">Observer</text></g><!--MD5=[fea3dc74c7473bae0133d22265a91e2f]
class Cell--><g id="elem_Cell"><rect codeLine="7" fill="#F1F1F1" height="110.4375" id="Cell" rx="2.5" ry="2.5" style="stroke:#181818;stroke-width:0.5;" width="115" x="147" y="7"/><ellipse cx="188.55" cy="23" fill="#ADD1B2" rx="11" ry="11" style="stroke:#181818;stroke-width:1.0;"/><path d="M191.3156,18.875 Q191.4719,18.6563 191.6594,18.5469 Q191.8469,18.4375 192.0656,18.4375 Q192.4406,18.4375 192.675,18.7031 Q192.9094,18.9531 192.9094,19.5625 L192.9094,21.0156 Q192.9094,21.625 192.675,21.8906 Q192.4406,22.1563 192.0656,22.1563 Q191.7219,22.1563 191.5188,21.9531 Q191.3156,21.7656 191.2063,21.25 Q191.1594,20.8906 190.9719,20.7031 Q190.6438,20.3281 190.0344,20.1094 Q189.425,19.8906 188.8,19.8906 Q188.0344,19.8906 187.3938,20.2188 Q186.7688,20.5469 186.2688,21.2969 Q185.7844,22.0469 185.7844,23.0781 L185.7844,24.1719 Q185.7844,25.4063 186.675,26.2344 Q187.5656,27.0469 189.1594,27.0469 Q190.0969,27.0469 190.7531,26.7969 Q191.1438,26.6406 191.5656,26.2031 Q191.8313,25.9375 191.9719,25.8594 Q192.1281,25.7813 192.3313,25.7813 Q192.6594,25.7813 192.9094,26.0469 Q193.175,26.2969 193.175,26.6406 Q193.175,26.9844 192.8313,27.3906 Q192.3313,27.9688 191.5344,28.2969 Q190.4563,28.75 189.1594,28.75 Q187.6438,28.75 186.4406,28.125 Q185.4563,27.625 184.7688,26.5625 Q184.0813,25.4844 184.0813,24.2031 L184.0813,23.0469 Q184.0813,21.7188 184.6906,20.5781 Q185.3156,19.4219 186.4094,18.8125 Q187.5031,18.1875 188.7375,18.1875 Q189.4719,18.1875 190.1125,18.3594 Q190.7688,18.5156 191.3156,18.875 Z " fill="#000000"/><text fill="#000000" font-family="sans-serif" font-size="14" lengthAdjust="spacing" textLength="24" x="208.45" y="28.7285">Cell</text><line style="stroke:#181818;stroke-width:0.5;" x1="148" x2="261" y1="39" y2="39"/><text fill="#000000" font-family="sans-serif" font-size="14" lengthAdjust="spacing" textLength="103" x="153" y="57.5332">boolean opened</text><text fill="#000000" font-family="sans-serif" font-size="14" lengthAdjust="spacing" textLength="90" x="153" y="75.1426">boolean bomb</text><text fill="#000000" font-family="sans-serif" font-size="14" lengthAdjust="spacing" textLength="42" x="153" y="92.752">int flag</text><text fill="#000000" font-family="sans-serif" font-size="14" lengthAdjust="spacing" textLength="46" x="153" y="110.3613">int num</text></g><!--MD5=[0cba4ca0c6a3196b49eacf52df6ffb92]
class MSModel--><g id="elem_MSModel"><rect codeLine="14" fill="#F1F1F1" height="136.0469" id="MSModel" rx="2.5" ry="2.5" style="stroke:#181818;stroke-width:0.5;" width="101" x="154" y="177"/><ellipse cx="173.95" cy="193" fill="#ADD1B2" rx="11" ry="11" style="stroke:#181818;stroke-width:1.0;"/><path d="M176.7156,188.875 Q176.8719,188.6563 177.0594,188.5469 Q177.2469,188.4375 177.4656,188.4375 Q177.8406,188.4375 178.075,188.7031 Q178.3094,188.9531 178.3094,189.5625 L178.3094,191.0156 Q178.3094,191.625 178.075,191.8906 Q177.8406,192.1563 177.4656,192.1563 Q177.1219,192.1563 176.9188,191.9531 Q176.7156,191.7656 176.6063,191.25 Q176.5594,190.8906 176.3719,190.7031 Q176.0438,190.3281 175.4344,190.1094 Q174.825,189.8906 174.2,189.8906 Q173.4344,189.8906 172.7938,190.2188 Q172.1688,190.5469 171.6688,191.2969 Q171.1844,192.0469 171.1844,193.0781 L171.1844,194.1719 Q171.1844,195.4063 172.075,196.2344 Q172.9656,197.0469 174.5594,197.0469 Q175.4969,197.0469 176.1531,196.7969 Q176.5438,196.6406 176.9656,196.2031 Q177.2313,195.9375 177.3719,195.8594 Q177.5281,195.7813 177.7313,195.7813 Q178.0594,195.7813 178.3094,196.0469 Q178.575,196.2969 178.575,196.6406 Q178.575,196.9844 178.2313,197.3906 Q177.7313,197.9688 176.9344,198.2969 Q175.8563,198.75 174.5594,198.75 Q173.0438,198.75 171.8406,198.125 Q170.8563,197.625 170.1688,196.5625 Q169.4813,195.4844 169.4813,194.2031 L169.4813,193.0469 Q169.4813,191.7188 170.0906,190.5781 Q170.7156,189.4219 171.8094,188.8125 Q172.9031,188.1875 174.1375,188.1875 Q174.8719,188.1875 175.5125,188.3594 Q176.1688,188.5156 176.7156,188.875 Z " fill="#000000"/><text fill="#000000" font-family="sans-serif" font-size="14" lengthAdjust="spacing" textLength="58" x="189.05" y="198.7285">MSModel</text><line style="stroke:#181818;stroke-width:0.5;" x1="155" x2="254" y1="209" y2="209"/><text fill="#000000" font-family="sans-serif" font-size="14" lengthAdjust="spacing" textLength="81" x="160" y="227.5332">Cell[][] board</text><line style="stroke:#181818;stroke-width:0.5;" x1="155" x2="254" y1="234.6094" y2="234.6094"/><text fill="#000000" font-family="sans-serif" font-size="14" lengthAdjust="spacing" textLength="72" x="160" y="253.1426">void open()</text><text fill="#000000" font-family="sans-serif" font-size="14" lengthAdjust="spacing" textLength="63" x="160" y="270.752">void flag()</text><text fill="#000000" font-family="sans-serif" font-size="14" lengthAdjust="spacing" textLength="85" x="160" y="288.3613">int getWidth()</text><text fill="#000000" font-family="sans-serif" font-size="14" lengthAdjust="spacing" textLength="89" x="160" y="305.9707">int getHeight()</text></g><!--MD5=[fd4f4b86fb4d736e25dd2c90866baa7a]
class MSView--><g id="elem_MSView"><rect codeLine="22" fill="#F1F1F1" height="32" id="MSView" rx="2.5" ry="2.5" style="stroke:#181818;stroke-width:0.5;" width="81" x="302" y="229"/><ellipse cx="317" cy="245" fill="#ADD1B2" rx="11" ry="11" style="stroke:#181818;stroke-width:1.0;"/><path d="M319.7656,240.875 Q319.9219,240.6563 320.1094,240.5469 Q320.2969,240.4375 320.5156,240.4375 Q320.8906,240.4375 321.125,240.7031 Q321.3594,240.9531 321.3594,241.5625 L321.3594,243.0156 Q321.3594,243.625 321.125,243.8906 Q320.8906,244.1563 320.5156,244.1563 Q320.1719,244.1563 319.9688,243.9531 Q319.7656,243.7656 319.6563,243.25 Q319.6094,242.8906 319.4219,242.7031 Q319.0938,242.3281 318.4844,242.1094 Q317.875,241.8906 317.25,241.8906 Q316.4844,241.8906 315.8438,242.2188 Q315.2188,242.5469 314.7188,243.2969 Q314.2344,244.0469 314.2344,245.0781 L314.2344,246.1719 Q314.2344,247.4063 315.125,248.2344 Q316.0156,249.0469 317.6094,249.0469 Q318.5469,249.0469 319.2031,248.7969 Q319.5938,248.6406 320.0156,248.2031 Q320.2813,247.9375 320.4219,247.8594 Q320.5781,247.7813 320.7813,247.7813 Q321.1094,247.7813 321.3594,248.0469 Q321.625,248.2969 321.625,248.6406 Q321.625,248.9844 321.2813,249.3906 Q320.7813,249.9688 319.9844,250.2969 Q318.9063,250.75 317.6094,250.75 Q316.0938,250.75 314.8906,250.125 Q313.9063,249.625 313.2188,248.5625 Q312.5313,247.4844 312.5313,246.2031 L312.5313,245.0469 Q312.5313,243.7188 313.1406,242.5781 Q313.7656,241.4219 314.8594,240.8125 Q315.9531,240.1875 317.1875,240.1875 Q317.9219,240.1875 318.5625,240.3594 Q319.2188,240.5156 319.7656,240.875 Z " fill="#000000"/><text fill="#000000" font-family="sans-serif" font-size="14" lengthAdjust="spacing" textLength="49" x="331" y="250.7285">MSView</text></g><!--MD5=[7a652f5802d83fb86ebe38361ef0be86]
class MSController--><g id="elem_MSController"><rect codeLine="24" fill="#F1F1F1" height="32" id="MSController" rx="2.5" ry="2.5" style="stroke:#181818;stroke-width:0.5;" width="114" x="423.5" y="229"/><ellipse cx="438.5" cy="245" fill="#ADD1B2" rx="11" ry="11" style="stroke:#181818;stroke-width:1.0;"/><path d="M441.2656,240.875 Q441.4219,240.6563 441.6094,240.5469 Q441.7969,240.4375 442.0156,240.4375 Q442.3906,240.4375 442.625,240.7031 Q442.8594,240.9531 442.8594,241.5625 L442.8594,243.0156 Q442.8594,243.625 442.625,243.8906 Q442.3906,244.1563 442.0156,244.1563 Q441.6719,244.1563 441.4688,243.9531 Q441.2656,243.7656 441.1563,243.25 Q441.1094,242.8906 440.9219,242.7031 Q440.5938,242.3281 439.9844,242.1094 Q439.375,241.8906 438.75,241.8906 Q437.9844,241.8906 437.3438,242.2188 Q436.7188,242.5469 436.2188,243.2969 Q435.7344,244.0469 435.7344,245.0781 L435.7344,246.1719 Q435.7344,247.4063 436.625,248.2344 Q437.5156,249.0469 439.1094,249.0469 Q440.0469,249.0469 440.7031,248.7969 Q441.0938,248.6406 441.5156,248.2031 Q441.7813,247.9375 441.9219,247.8594 Q442.0781,247.7813 442.2813,247.7813 Q442.6094,247.7813 442.8594,248.0469 Q443.125,248.2969 443.125,248.6406 Q443.125,248.9844 442.7813,249.3906 Q442.2813,249.9688 441.4844,250.2969 Q440.4063,250.75 439.1094,250.75 Q437.5938,250.75 436.3906,250.125 Q435.4063,249.625 434.7188,248.5625 Q434.0313,247.4844 434.0313,246.2031 L434.0313,245.0469 Q434.0313,243.7188 434.6406,242.5781 Q435.2656,241.4219 436.3594,240.8125 Q437.4531,240.1875 438.6875,240.1875 Q439.4219,240.1875 440.0625,240.3594 Q440.7188,240.5156 441.2656,240.875 Z " fill="#000000"/><text fill="#000000" font-family="sans-serif" font-size="14" lengthAdjust="spacing" textLength="82" x="452.5" y="250.7285">MSController</text></g><!--MD5=[57d14ccb75bbc2d2cf380c384b7d2a95]
class MineSweeper--><g id="elem_MineSweeper"><rect codeLine="28" fill="#F1F1F1" height="32" id="MineSweeper" rx="2.5" ry="2.5" style="stroke:#181818;stroke-width:0.5;" width="117" x="284" y="373"/><ellipse cx="299" cy="389" fill="#ADD1B2" rx="11" ry="11" style="stroke:#181818;stroke-width:1.0;"/><path d="M301.7656,384.875 Q301.9219,384.6563 302.1094,384.5469 Q302.2969,384.4375 302.5156,384.4375 Q302.8906,384.4375 303.125,384.7031 Q303.3594,384.9531 303.3594,385.5625 L303.3594,387.0156 Q303.3594,387.625 303.125,387.8906 Q302.8906,388.1563 302.5156,388.1563 Q302.1719,388.1563 301.9688,387.9531 Q301.7656,387.7656 301.6563,387.25 Q301.6094,386.8906 301.4219,386.7031 Q301.0938,386.3281 300.4844,386.1094 Q299.875,385.8906 299.25,385.8906 Q298.4844,385.8906 297.8438,386.2188 Q297.2188,386.5469 296.7188,387.2969 Q296.2344,388.0469 296.2344,389.0781 L296.2344,390.1719 Q296.2344,391.4063 297.125,392.2344 Q298.0156,393.0469 299.6094,393.0469 Q300.5469,393.0469 301.2031,392.7969 Q301.5938,392.6406 302.0156,392.2031 Q302.2813,391.9375 302.4219,391.8594 Q302.5781,391.7813 302.7813,391.7813 Q303.1094,391.7813 303.3594,392.0469 Q303.625,392.2969 303.625,392.6406 Q303.625,392.9844 303.2813,393.3906 Q302.7813,393.9688 301.9844,394.2969 Q300.9063,394.75 299.6094,394.75 Q298.0938,394.75 296.8906,394.125 Q295.9063,393.625 295.2188,392.5625 Q294.5313,391.4844 294.5313,390.2031 L294.5313,389.0469 Q294.5313,387.7188 295.1406,386.5781 Q295.7656,385.4219 296.8594,384.8125 Q297.9531,384.1875 299.1875,384.1875 Q299.9219,384.1875 300.5625,384.3594 Q301.2188,384.5156 301.7656,384.875 Z " fill="#000000"/><text fill="#000000" font-family="sans-serif" font-size="14" lengthAdjust="spacing" textLength="85" x="313" y="394.7285">MineSweeper</text></g><!--MD5=[737880177de1ac01acd3fce58d07e50e]
class MouseListener--><g id="elem_MouseListener"><rect codeLine="30" fill="#F1F1F1" height="32" id="MouseListener" rx="2.5" ry="2.5" style="stroke:#181818;stroke-width:0.5;" width="126" x="422.5" y="46"/><ellipse cx="437.5" cy="62" fill="#B4A7E5" rx="11" ry="11" style="stroke:#181818;stroke-width:1.0;"/><path d="M438.4531,58.6406 L438.4531,65.2969 L440.1719,65.2969 Q440.7813,65.2969 441.0469,65.5313 Q441.3125,65.7656 441.3125,66.1563 Q441.3125,66.5313 441.0469,66.7656 Q440.7813,67 440.1719,67 L435.0313,67 Q434.4219,67 434.1563,66.7656 Q433.8906,66.5313 433.8906,66.1406 Q433.8906,65.7656 434.1563,65.5313 Q434.4219,65.2969 435.0313,65.2969 L436.75,65.2969 L436.75,58.6406 L435.0313,58.6406 Q434.4219,58.6406 434.1563,58.4063 Q433.8906,58.1719 433.8906,57.7813 Q433.8906,57.4063 434.1563,57.1719 Q434.4219,56.9375 435.0313,56.9375 L440.1719,56.9375 Q440.7813,56.9375 441.0469,57.1719 Q441.3125,57.4063 441.3125,57.7813 Q441.3125,58.1719 441.0469,58.4063 Q440.7813,58.6406 440.1719,58.6406 L438.4531,58.6406 Z " fill="#000000"/><text fill="#000000" font-family="sans-serif" font-size="14" font-style="italic" lengthAdjust="spacing" textLength="94" x="451.5" y="67.7285">MouseListener</text></g><!--MD5=[b1429d2137bf2bd411e65e20ec85b026]
reverse link Cell to MSModel--><g id="link_Cell_MSModel"><path codeLine="32" d="M204.5,122.64 C204.5,140.01 204.5,159.11 204.5,176.92 " fill="none" id="Cell-backto-MSModel" style="stroke:#181818;stroke-width:1.0;stroke-dasharray:7.0,7.0;"/><polygon fill="#181818" points="204.5,117.31,200.5,126.31,204.5,122.31,208.5,126.31,204.5,117.31" style="stroke:#181818;stroke-width:1.0;"/></g><!--MD5=[bab07b600c7a56e4535844392c5632a0]
reverse link Observable to MSModel--><g id="link_Observable_MSModel"><path codeLine="34" d="M84.18,93.81 C103.23,117.58 130.22,151.28 153.82,180.73 " fill="none" id="Observable-backto-MSModel" style="stroke:#181818;stroke-width:1.0;"/><polygon fill="none" points="78.65,98.11,71.61,78.12,89.58,89.35,78.65,98.11" style="stroke:#181818;stroke-width:1.0;"/></g><!--MD5=[b4c92785cb339e1b0bebb9e55b5824a8]
reverse link Observer to MSView--><g id="link_Observer_MSView"><path codeLine="35" d="M342.5,98.37 C342.5,137.95 342.5,200.25 342.5,228.8 " fill="none" id="Observer-backto-MSView" style="stroke:#181818;stroke-width:1.0;stroke-dasharray:7.0,7.0;"/><polygon fill="none" points="335.5,98.12,342.5,78.12,349.5,98.12,335.5,98.12" style="stroke:#181818;stroke-width:1.0;"/></g><!--MD5=[f7e27c21f85ef4c985fdf311e61a581f]
reverse link MouseListener to MSController--><g id="link_MouseListener_MSController"><path codeLine="36" d="M484.52,98.37 C483.43,137.95 481.71,200.25 480.92,228.8 " fill="none" id="MouseListener-backto-MSController" style="stroke:#181818;stroke-width:1.0;stroke-dasharray:7.0,7.0;"/><polygon fill="none" points="477.53,97.92,485.08,78.12,491.53,98.31,477.53,97.92" style="stroke:#181818;stroke-width:1.0;"/></g><!--MD5=[992de7332be804fddc67cd71148396e4]
reverse link MSModel to MineSweeper--><g id="link_MSModel_MineSweeper"><path codeLine="38" d="M258.76,301.83 C283.69,327.49 311.32,355.92 327.78,372.85 " fill="none" id="MSModel-backto-MineSweeper" style="stroke:#181818;stroke-width:1.0;stroke-dasharray:7.0,7.0;"/><polygon fill="#181818" points="255.1,298.07,258.4862,307.3184,258.5778,301.6623,264.2339,301.7539,255.1,298.07" style="stroke:#181818;stroke-width:1.0;"/></g><!--MD5=[3cd2082b63bcd16bdcad1411712b3bea]
reverse link MSView to MineSweeper--><g id="link_MSView_MineSweeper"><path codeLine="39" d="M342.5,266.3 C342.5,295.12 342.5,347.26 342.5,372.91 " fill="none" id="MSView-backto-MineSweeper" style="stroke:#181818;stroke-width:1.0;stroke-dasharray:7.0,7.0;"/><polygon fill="#181818" points="342.5,261.2,338.5,270.2,342.5,266.2,346.5,270.2,342.5,261.2" style="stroke:#181818;stroke-width:1.0;"/></g><!--MD5=[7e6efc1d5fc1beee6fcc6393e672853f]
reverse link MSController to MineSweeper--><g id="link_MSController_MineSweeper"><path codeLine="40" d="M462.15,264.88 C434.45,293.38 382.51,346.83 357.16,372.91 " fill="none" id="MSController-backto-MineSweeper" style="stroke:#181818;stroke-width:1.0;stroke-dasharray:7.0,7.0;"/><polygon fill="#181818" points="465.73,261.2,456.5885,264.8652,462.2448,264.7852,462.3248,270.4415,465.73,261.2" style="stroke:#181818;stroke-width:1.0;"/></g><!--MD5=[d0101f7f87410f9d992bea62bbd852b3]
@startuml mvc
hide empty members

class Observable {}

interface Observer {}

class Cell {
    boolean opened
    boolean bomb
    int flag
    int num
}

class MSModel {
    Cell[][] board
    void open()
    void flag()
    int getWidth()
    int getHeight()
}

class MSView {}

class MSController {

}

class MineSweeper {}

interface MouseListener {}

Cell <.. MSModel

Observable <|- - MSModel
Observer <|.. MSView
MouseListener <|.. MSController

MSModel <.. MineSweeper
MSView <.. MineSweeper
MSController <.. MineSweeper

@enduml

PlantUML version 1.2022.7(Tue Aug 23 02:01:30 JST 2022)
(GPL source distribution)
Java Runtime: OpenJDK Runtime Environment
JVM: OpenJDK 64-Bit Server VM
Default Encoding: UTF-8
Language: ja
Country: JP
--></g></svg>